Input #0, matroska,webm, from '/mnt/nas/media/TV Shows/Spartacus - House of Ashur/Season 1/Spartacus - House of Ashur - S01E08 - Horizons WEBDL-1080p.mkv':
  Metadata:
    encoder         : libebml v1.4.4 + libmatroska v1.7.1
  Duration: 00:59:39.30, start: 0.000000, bitrate: 10187 kb/s
  Stream #0:0: Video: h264 (High), yuv420p(tv, bt709, progressive), 1920x1080 [SAR 1:1 DAR 16:9], 23.98 fps, 23.98 tbr, 1k tbn (default)
      Metadata:
        BPS             : 9544889
        DURATION        : 00:59:39.243000000
        NUMBER_OF_FRAMES: 85816
        NUMBER_OF_BYTES : 4270434985
        _STATISTICS_WRITING_APP: mkvmerge v90.0 ('Hanging On') 64-bit
        _STATISTICS_TAGS: BPS DURATION NUMBER_OF_FRAMES NUMBER_OF_BYTES
  Stream #0:1(eng): Audio: eac3, 48000 Hz, 5.1(side), fltp, 640 kb/s (default)
      Metadata:
        BPS             : 640000
        DURATION        : 00:59:39.296000000
        NUMBER_OF_FRAMES: 111853
        NUMBER_OF_BYTES : 286343680
        _STATISTICS_WRITING_APP: mkvmerge v90.0 ('Hanging On') 64-bit
        _STATISTICS_TAGS: BPS DURATION NUMBER_OF_FRAMES NUMBER_OF_BYTES
  Stream #0:2(eng): Subtitle: subrip (srt)
      Metadata:
        title           : English (SDH)
        BPS             : 58
        DURATION        : 00:58:41.435000000
        NUMBER_OF_FRAMES: 941
        NUMBER_OF_BYTES : 25851
        _STATISTICS_WRITING_APP: mkvmerge v90.0 ('Hanging On') 64-bit
        _STATISTICS_TAGS: BPS DURATION NUMBER_OF_FRAMES NUMBER_OF_BYTES
  Stream #0:3(spa): Subtitle: subrip (srt)
      Metadata:
        title           : Español (Latinoamérica) (SDH)
        BPS             : 62
        DURATION        : 00:58:43.520000000
        NUMBER_OF_FRAMES: 980
        NUMBER_OF_BYTES : 27597
        _STATISTICS_WRITING_APP: mkvmerge v90.0 ('Hanging On') 64-bit
        _STATISTICS_TAGS: BPS DURATION NUMBER_OF_FRAMES NUMBER_OF_BYTES
Stream mapping:
  Stream #0:0 -> #0:0 (h264 (native) -> wrapped_avframe (native))
Press [q] to stop, [?] for help
Output #0, null, to 'pipe:':
  Metadata:
    encoder         : Lavf61.7.100
  Stream #0:0: Video: wrapped_avframe, yuv420p(tv, bt709, progressive), 1920x1080 [SAR 1:1 DAR 16:9], q=2-31, 200 kb/s, 23.98 fps, 23.98 tbn (default)
      Metadata:
        BPS             : 9544889
        DURATION        : 00:59:39.243000000
        NUMBER_OF_FRAMES: 85816
        NUMBER_OF_BYTES : 4270434985
        _STATISTICS_WRITING_APP: mkvmerge v90.0 ('Hanging On') 64-bit
        _STATISTICS_TAGS: BPS DURATION NUMBER_OF_FRAMES NUMBER_OF_BYTES
        encoder         : Lavc61.19.101 wrapped_avframe
frame=   16 fps=0.0 q=-0.0 size=N/A time=00:00:00.70 bitrate=N/A speed=1.42x    [out#0/null @ 0x7ca6d80805c0] video:20KiB audio:0KiB subtitle:0KiB other streams:0KiB global headers:0KiB muxing overhead: unknown
frame=   47 fps=0.0 q=-0.0 Lsize=N/A time=00:00:02.00 bitrate=N/A speed=2.68x    
